<svg version="1" xmlns="http://www.w3.org/2000/svg" width="700" height="700" viewBox="0 0 525.000000 525.000000"><path d="M189.4 57.3c-10 4.8-16.3 15.8-15 26.4 2 17.1 18.4 27.8 34.3 22.4 7.1-2.4 11.5-6.1 14.8-12.3l2.8-5.3 130.1.1c71.5.1 130.3.2 130.6.3.3 0-56.7 57.2-126.5 127.1l-127 127 6 .1c3.3 0 24.9 0 48 .1h42l3.5 3.8c4.7 5.1 10.5 6.8 16.8 5.1 13.9-3.7 17.2-20.9 5.8-29.6-6.8-5.1-17.9-3.8-23.1 2.8l-2.4 3.2H300c-16.5 0-30-.2-30-.5s56.9-57.4 126.5-127S523 74.3 523 74c0-.3-66.8-.4-148.5-.4l-148.5.1-1.9-4.1c-4.1-9-11.7-13.8-22.6-14.4-5.8-.2-7.9.1-12.1 2.1zm16.5 10.3c4.4 1.8 8.7 7.2 9.4 12 .7 4.5-2.4 10.7-6.5 13.2-9.1 5.6-20.5.6-22.3-9.7-1.1-6.6 3.6-14.1 10.1-16.1 4.2-1.2 4.9-1.2 9.3.6zM350.1 328c2.3 1.3 5 6.3 4.6 8.7-.5 3.3-2.7 6.3-5.7 7.8-3.6 1.9-3.4 1.9-6.8.1-3.9-2-5.2-3.8-5.7-7.7-.8-6.8 7.3-12.2 13.6-8.9z"/><path d="M32.3 61.1c-8.2 1.5-14.3 6.1-18.2 14-6.9 13.7-1.1 29.6 13 35.8 5.9 2.6 15.6 2.3 21.5-.7 4.6-2.3 9.9-7.4 12-11.5 1-1.9 2.3-2.7 4.2-2.8 3-.1 65.7-.1 68.3 0 1.4.1 7.4 5.6 18.6 17.3l3.3 3.4-17.6-.1h-17.6l-2.7-4c-3-4.6-9.9-8.5-14.8-8.5-6.7 0-13.9 4.4-17 10.4-2.1 4.1-2 12.3.2 16.9 3.5 7.5 14.3 11.6 22.8 8.8 3.3-1.1 8.2-5.6 10.5-9.6.8-1.5 3.5-1.7 25.3-1.6 13.4 0 77.7.1 142.9.1h118.5L283.3 251.2C216 318.5 161 373.7 161 374c0 .3 61.5.5 136.6.5l136.6-.2.8 2.2c1.5 3.9 7.6 8.3 12.5 9 12.9 2 22-5.4 22-18.1 0-5.1-.5-6.7-2.9-10.2-7.4-10.8-23.4-10.8-30.3 0l-2.8 4.3h-27.7c-23.4 0-27.5-.2-26.5-1.4.6-.7 5.1-5.4 10.1-10.5l8.9-9.1 37.3-.1c37.2-.1 37.3-.1 37.8 2 .3 1.2 2.1 4 4 6.2 8.1 9.5 24.5 11.4 35.1 4 13-9 14.6-28.4 3.2-39.6-5.4-5.4-10.3-7.4-18.3-7.4-8.2-.1-14.6 2.6-19.5 8.1-3.4 4-7.1 10.8-6.2 11.7.8.8 2.8.7-41.7.8l-37.5.1-7.9 7.6c-4.3 4.2-12 11.6-17 16.6l-9.1 9-80.7.1c-44.5.1-80.8-.2-80.8-.5s54.8-55.4 121.7-122.3L440.5 115l-133 .1h-133L158 98.3l-16.5-16.8-39.4-.5-39.5-.5-.8-3c-1-4.2-7.2-11.2-12-13.6-5.1-2.6-12.1-3.7-17.5-2.8zm11.9 13c6.7 2.8 9.5 14.3 5 20.7-6.2 8.6-18 8.5-23.9-.1-2.8-4.2-3.4-8.4-1.6-12.7 3.5-8.8 11.2-11.7 20.5-7.9zm63.7 40c8.1 5.1 3.8 18.9-5.9 18.9-2.9 0-7.7-2.7-9-4.9-1.4-2.7-1.2-9.3.4-11.3 3.2-4.3 9.9-5.5 14.5-2.7zm393.2 204c12.5 3.8 13.5 20.3 1.7 26.5-9.2 4.8-22.3-4.8-20.4-14.9 1.2-6.2 7.5-11.9 14-12.6.5-.1 2.6.4 4.7 1zm-43.3 42.4c3.8 3.2 4.6 6.5 2.8 10.9-3 7.1-12 8.4-17 2.5-7.9-9.4 4.8-21.3 14.2-13.4z"/><path d="M70 138c-7.7 1.4-12.8 5.9-14.7 13-3.4 12.2 5.9 24.1 18.7 24 4.6-.1 10.8-3.7 14.1-8.3l3.1-4.4h27.4c19.6 0 27.1.3 26.7 1.1-.4.6-4.9 5.4-10 10.6l-9.3 9.5-36.2-.1c-20-.1-36.8-.2-37.4-.3-.7 0-1.4-1.1-1.8-2.4-.9-3.4-6.6-9.3-11.6-11.8-5.5-2.7-16.5-3.1-22.1-.7-20.9 9-21 38.7-.1 48.1 12.9 5.8 29.4-.9 34.9-14.2.8-2 1.9-3.8 2.4-4.1.4-.3 18.1-.5 39.3-.5l38.5.1 17.3-16.8 17.3-16.8h162L206.7 285.8C139.8 352.7 85 407.7 85 408c0 .3 59.5.5 132.3.4l132.2-.1 17.1 17.4 17.2 17.4 32.8-.1h39c5.8 0 6.2.2 6.8 2.6.4 1.4 1.8 4.3 3.2 6.4 9.2 13.8 31.8 14.7 41.8 1.5 4.1-5.3 5.6-9.8 5.6-16.7 0-11.1-5.5-19.5-15.9-24.1-6.9-3-17.1-2.1-23.7 2.2-4.7 3.1-10.4 9.7-10.4 12 0 .8-10.9 1.1-36.8 1.1h-36.7l-9.8-9.8c-5.3-5.3-9.7-10-9.7-10.3 0-.3 7.9-.6 17.5-.7H405l1.5 2.9c5.5 10.6 19.1 12.7 28.4 4.4 11.3-10.2 5.9-28.8-9.1-31.5-7.7-1.4-16.1 2.6-19.6 9.6l-1.1 2.1-142.3-.2c-78.3-.2-142.5-.3-142.8-.4-.3-.1 54.6-55.2 122-122.6L364.5 149l-136.8.2-136.8.2-1.8-3.1c-3.8-6.1-11.8-9.6-19.1-8.3zm7.4 9c7.5 2.8 7.9 13.7.6 17.5-4.3 2.2-8.8 1.5-12.1-1.8-7.9-7.9.8-19.8 11.5-15.7zm-43.6 32.4c7.8 4 10.5 13.1 6.1 19.8-4.4 6.8-14.1 9.2-19.9 5-9-6.7-8.9-18.6.3-24.2 3.8-2.3 9.7-2.6 13.5-.6zm395.3 214.4c7 6.2 3 17-6.4 17.4-4.3.1-7.3-1.6-9.2-5.3-2.2-4.1-1.5-8.4 1.9-11.9 3.8-4.1 9.3-4.2 13.7-.2zm65.8 31.1c4.6 3.3 6.6 6.9 6.6 12.2-.1 11.2-11.9 17.9-21.7 12.2-8.7-5-9.4-18.4-1.2-23.8 5.8-3.8 11.6-4 16.3-.6z"/><path d="M171.2 172.7c-5.2 2.5-8.5 7.6-9 13.7-.5 6 1 9.6 5.5 13.7 7.1 6.6 18.7 5.6 24.4-2l2.1-2.8 30.5-.1h30.6L127.9 322.6.5 450h149l149 .1 2.2 4.8c8 17 33.3 18.8 44.4 3.2 9.3-12.9 5.7-29.9-8.1-38.3-4.9-3-6.2-3.3-13-3.3-6.4 0-8.3.4-12.8 2.9-5.5 3.1-9.6 7.6-11.4 12.6l-1 3H36.5l127.3-127.3L291 180.5h-96.2l-2.3-2.7c-5.5-6.5-14.2-8.6-21.3-5.1zm11.3 6.5c4.5 2 6.8 8.5 4.5 12.9-1.6 2.9-6.7 5.1-10.1 4.4-5.5-1.2-8.6-8.4-5.8-13.6.6-1.2 2.5-2.7 4.2-3.4 4-1.8 4-1.8 7.2-.3zM331.9 431c8.4 5.9 8 17.8-.9 24.1-5.7 4.1-14.5 2.2-19.1-4.2-3.1-4.4-3.3-12.1-.4-16.1 4.7-6.5 14.3-8.2 20.4-3.8z"/></svg>